<mxfile host="app.diagrams.net" modified="2023-10-09T11:34:07.753Z" agent="Mozilla/5.0 (Macintosh; Intel Mac OS X 10.15; rv:109.0) Gecko/20100101 Firefox/118.0" etag="-MIMsi4xwS6pOXCZzklW" version="22.0.4" type="device">
  <diagram name="Page-1" id="2C9C83KOcigPTdVa1JXt">
    <mxGraphModel dx="2074" dy="1093" grid="1" gridSize="10" guides="1" tooltips="1" connect="1" arrows="1" fold="1" page="1" pageScale="1" pageWidth="827" pageHeight="1169" math="0" shadow="0">
      <root>
        <mxCell id="0" />
        <mxCell id="1" parent="0" />
        <mxCell id="TIXMKi7c1EUlPMxtsbDO-31" style="rounded=0;orthogonalLoop=1;jettySize=auto;html=1;exitX=0.5;exitY=0.5;exitDx=0;exitDy=0;exitPerimeter=0;entryX=0;entryY=0.5;entryDx=0;entryDy=0;" edge="1" parent="1" source="TIXMKi7c1EUlPMxtsbDO-1" target="TIXMKi7c1EUlPMxtsbDO-7">
          <mxGeometry relative="1" as="geometry" />
        </mxCell>
        <mxCell id="TIXMKi7c1EUlPMxtsbDO-32" style="rounded=0;orthogonalLoop=1;jettySize=auto;html=1;exitX=0.5;exitY=0.5;exitDx=0;exitDy=0;exitPerimeter=0;entryX=0;entryY=0.5;entryDx=0;entryDy=0;" edge="1" parent="1" source="TIXMKi7c1EUlPMxtsbDO-1" target="TIXMKi7c1EUlPMxtsbDO-8">
          <mxGeometry relative="1" as="geometry" />
        </mxCell>
        <mxCell id="TIXMKi7c1EUlPMxtsbDO-33" style="rounded=0;orthogonalLoop=1;jettySize=auto;html=1;exitX=0.5;exitY=0.5;exitDx=0;exitDy=0;exitPerimeter=0;entryX=0;entryY=0.5;entryDx=0;entryDy=0;" edge="1" parent="1" source="TIXMKi7c1EUlPMxtsbDO-1" target="TIXMKi7c1EUlPMxtsbDO-9">
          <mxGeometry relative="1" as="geometry" />
        </mxCell>
        <mxCell id="TIXMKi7c1EUlPMxtsbDO-34" style="rounded=0;orthogonalLoop=1;jettySize=auto;html=1;exitX=0.5;exitY=0.5;exitDx=0;exitDy=0;exitPerimeter=0;entryX=0;entryY=0.5;entryDx=0;entryDy=0;" edge="1" parent="1" source="TIXMKi7c1EUlPMxtsbDO-1" target="TIXMKi7c1EUlPMxtsbDO-10">
          <mxGeometry relative="1" as="geometry" />
        </mxCell>
        <mxCell id="TIXMKi7c1EUlPMxtsbDO-35" style="rounded=0;orthogonalLoop=1;jettySize=auto;html=1;exitX=0.5;exitY=0.5;exitDx=0;exitDy=0;exitPerimeter=0;entryX=0;entryY=0.5;entryDx=0;entryDy=0;" edge="1" parent="1" source="TIXMKi7c1EUlPMxtsbDO-1" target="TIXMKi7c1EUlPMxtsbDO-11">
          <mxGeometry relative="1" as="geometry" />
        </mxCell>
        <mxCell id="TIXMKi7c1EUlPMxtsbDO-36" style="rounded=0;orthogonalLoop=1;jettySize=auto;html=1;exitX=0.5;exitY=0.5;exitDx=0;exitDy=0;exitPerimeter=0;entryX=0;entryY=0.5;entryDx=0;entryDy=0;" edge="1" parent="1" source="TIXMKi7c1EUlPMxtsbDO-1" target="TIXMKi7c1EUlPMxtsbDO-12">
          <mxGeometry relative="1" as="geometry" />
        </mxCell>
        <mxCell id="TIXMKi7c1EUlPMxtsbDO-37" style="rounded=0;orthogonalLoop=1;jettySize=auto;html=1;exitX=0.5;exitY=0.5;exitDx=0;exitDy=0;exitPerimeter=0;entryX=0;entryY=0.5;entryDx=0;entryDy=0;" edge="1" parent="1" source="TIXMKi7c1EUlPMxtsbDO-1" target="TIXMKi7c1EUlPMxtsbDO-13">
          <mxGeometry relative="1" as="geometry" />
        </mxCell>
        <mxCell id="TIXMKi7c1EUlPMxtsbDO-38" style="rounded=0;orthogonalLoop=1;jettySize=auto;html=1;exitX=0.5;exitY=0.5;exitDx=0;exitDy=0;exitPerimeter=0;entryX=0;entryY=0.5;entryDx=0;entryDy=0;" edge="1" parent="1" source="TIXMKi7c1EUlPMxtsbDO-1" target="TIXMKi7c1EUlPMxtsbDO-14">
          <mxGeometry relative="1" as="geometry" />
        </mxCell>
        <mxCell id="TIXMKi7c1EUlPMxtsbDO-1" value="&lt;div&gt;Student&lt;br&gt;User&lt;/div&gt;" style="shape=umlActor;verticalLabelPosition=bottom;verticalAlign=top;html=1;" vertex="1" parent="1">
          <mxGeometry x="70" y="330" width="30" height="60" as="geometry" />
        </mxCell>
        <mxCell id="TIXMKi7c1EUlPMxtsbDO-18" style="rounded=0;orthogonalLoop=1;jettySize=auto;html=1;exitX=0.5;exitY=0.5;exitDx=0;exitDy=0;exitPerimeter=0;entryX=1;entryY=0.5;entryDx=0;entryDy=0;" edge="1" parent="1" source="TIXMKi7c1EUlPMxtsbDO-4" target="TIXMKi7c1EUlPMxtsbDO-16">
          <mxGeometry relative="1" as="geometry" />
        </mxCell>
        <mxCell id="TIXMKi7c1EUlPMxtsbDO-19" style="rounded=0;orthogonalLoop=1;jettySize=auto;html=1;exitX=0.5;exitY=0.5;exitDx=0;exitDy=0;exitPerimeter=0;entryX=1;entryY=0.5;entryDx=0;entryDy=0;" edge="1" parent="1" source="TIXMKi7c1EUlPMxtsbDO-4" target="TIXMKi7c1EUlPMxtsbDO-15">
          <mxGeometry relative="1" as="geometry" />
        </mxCell>
        <mxCell id="TIXMKi7c1EUlPMxtsbDO-39" style="rounded=0;orthogonalLoop=1;jettySize=auto;html=1;exitX=0.5;exitY=0.5;exitDx=0;exitDy=0;exitPerimeter=0;entryX=1;entryY=0.5;entryDx=0;entryDy=0;" edge="1" parent="1" source="TIXMKi7c1EUlPMxtsbDO-4" target="TIXMKi7c1EUlPMxtsbDO-14">
          <mxGeometry relative="1" as="geometry" />
        </mxCell>
        <mxCell id="TIXMKi7c1EUlPMxtsbDO-40" style="rounded=0;orthogonalLoop=1;jettySize=auto;html=1;exitX=0.5;exitY=0.5;exitDx=0;exitDy=0;exitPerimeter=0;entryX=1;entryY=0.5;entryDx=0;entryDy=0;" edge="1" parent="1" source="TIXMKi7c1EUlPMxtsbDO-4" target="TIXMKi7c1EUlPMxtsbDO-13">
          <mxGeometry relative="1" as="geometry" />
        </mxCell>
        <mxCell id="TIXMKi7c1EUlPMxtsbDO-41" style="rounded=0;orthogonalLoop=1;jettySize=auto;html=1;exitX=0.5;exitY=0.5;exitDx=0;exitDy=0;exitPerimeter=0;entryX=1;entryY=0.5;entryDx=0;entryDy=0;" edge="1" parent="1" source="TIXMKi7c1EUlPMxtsbDO-4" target="TIXMKi7c1EUlPMxtsbDO-12">
          <mxGeometry relative="1" as="geometry" />
        </mxCell>
        <mxCell id="TIXMKi7c1EUlPMxtsbDO-42" style="rounded=0;orthogonalLoop=1;jettySize=auto;html=1;exitX=0.5;exitY=0.5;exitDx=0;exitDy=0;exitPerimeter=0;entryX=1;entryY=0.5;entryDx=0;entryDy=0;" edge="1" parent="1" source="TIXMKi7c1EUlPMxtsbDO-4" target="TIXMKi7c1EUlPMxtsbDO-11">
          <mxGeometry relative="1" as="geometry" />
        </mxCell>
        <mxCell id="TIXMKi7c1EUlPMxtsbDO-43" style="rounded=0;orthogonalLoop=1;jettySize=auto;html=1;exitX=0.5;exitY=0.5;exitDx=0;exitDy=0;exitPerimeter=0;entryX=1;entryY=0.5;entryDx=0;entryDy=0;" edge="1" parent="1" source="TIXMKi7c1EUlPMxtsbDO-4" target="TIXMKi7c1EUlPMxtsbDO-10">
          <mxGeometry relative="1" as="geometry" />
        </mxCell>
        <mxCell id="TIXMKi7c1EUlPMxtsbDO-44" style="rounded=0;orthogonalLoop=1;jettySize=auto;html=1;exitX=0.5;exitY=0.5;exitDx=0;exitDy=0;exitPerimeter=0;entryX=1;entryY=0.5;entryDx=0;entryDy=0;" edge="1" parent="1" source="TIXMKi7c1EUlPMxtsbDO-4" target="TIXMKi7c1EUlPMxtsbDO-9">
          <mxGeometry relative="1" as="geometry" />
        </mxCell>
        <mxCell id="TIXMKi7c1EUlPMxtsbDO-45" style="rounded=0;orthogonalLoop=1;jettySize=auto;html=1;exitX=0.5;exitY=0.5;exitDx=0;exitDy=0;exitPerimeter=0;entryX=1;entryY=0.5;entryDx=0;entryDy=0;" edge="1" parent="1" source="TIXMKi7c1EUlPMxtsbDO-4" target="TIXMKi7c1EUlPMxtsbDO-8">
          <mxGeometry relative="1" as="geometry" />
        </mxCell>
        <mxCell id="TIXMKi7c1EUlPMxtsbDO-46" style="rounded=0;orthogonalLoop=1;jettySize=auto;html=1;exitX=0.5;exitY=0.5;exitDx=0;exitDy=0;exitPerimeter=0;entryX=1;entryY=0.5;entryDx=0;entryDy=0;" edge="1" parent="1" source="TIXMKi7c1EUlPMxtsbDO-4" target="TIXMKi7c1EUlPMxtsbDO-7">
          <mxGeometry relative="1" as="geometry" />
        </mxCell>
        <mxCell id="TIXMKi7c1EUlPMxtsbDO-4" value="&lt;div&gt;Expert&lt;br&gt;User&lt;/div&gt;" style="shape=umlActor;verticalLabelPosition=bottom;verticalAlign=top;html=1;" vertex="1" parent="1">
          <mxGeometry x="700" y="420" width="30" height="60" as="geometry" />
        </mxCell>
        <mxCell id="TIXMKi7c1EUlPMxtsbDO-7" value="Simple Function Composition" style="ellipse;whiteSpace=wrap;html=1;" vertex="1" parent="1">
          <mxGeometry x="330" y="20" width="140" height="70" as="geometry" />
        </mxCell>
        <mxCell id="TIXMKi7c1EUlPMxtsbDO-8" value="Function Execution" style="ellipse;whiteSpace=wrap;html=1;" vertex="1" parent="1">
          <mxGeometry x="330" y="109" width="140" height="70" as="geometry" />
        </mxCell>
        <mxCell id="TIXMKi7c1EUlPMxtsbDO-9" value="&lt;div&gt;Function Composition using Lists&lt;/div&gt;" style="ellipse;whiteSpace=wrap;html=1;" vertex="1" parent="1">
          <mxGeometry x="330" y="198" width="140" height="70" as="geometry" />
        </mxCell>
        <mxCell id="TIXMKi7c1EUlPMxtsbDO-10" value="Recursive Function Composition" style="ellipse;whiteSpace=wrap;html=1;" vertex="1" parent="1">
          <mxGeometry x="330" y="287" width="140" height="70" as="geometry" />
        </mxCell>
        <mxCell id="TIXMKi7c1EUlPMxtsbDO-11" value="Function Composition using Higher-Order Functions" style="ellipse;whiteSpace=wrap;html=1;" vertex="1" parent="1">
          <mxGeometry x="330" y="376" width="140" height="70" as="geometry" />
        </mxCell>
        <mxCell id="TIXMKi7c1EUlPMxtsbDO-12" value="&lt;div&gt;Data Type Composition&lt;/div&gt;" style="ellipse;whiteSpace=wrap;html=1;" vertex="1" parent="1">
          <mxGeometry x="330" y="464" width="140" height="70" as="geometry" />
        </mxCell>
        <mxCell id="TIXMKi7c1EUlPMxtsbDO-13" value="&lt;div&gt;Save Source File&lt;/div&gt;" style="ellipse;whiteSpace=wrap;html=1;" vertex="1" parent="1">
          <mxGeometry x="330" y="553" width="140" height="70" as="geometry" />
        </mxCell>
        <mxCell id="TIXMKi7c1EUlPMxtsbDO-14" value="&lt;div&gt;Open Source File&lt;/div&gt;" style="ellipse;whiteSpace=wrap;html=1;" vertex="1" parent="1">
          <mxGeometry x="330" y="642" width="140" height="70" as="geometry" />
        </mxCell>
        <mxCell id="TIXMKi7c1EUlPMxtsbDO-15" value="Group Functions into Modules" style="ellipse;whiteSpace=wrap;html=1;" vertex="1" parent="1">
          <mxGeometry x="330" y="731" width="140" height="70" as="geometry" />
        </mxCell>
        <mxCell id="TIXMKi7c1EUlPMxtsbDO-16" value="Import Haskell Code" style="ellipse;whiteSpace=wrap;html=1;" vertex="1" parent="1">
          <mxGeometry x="330" y="820" width="140" height="70" as="geometry" />
        </mxCell>
        <mxCell id="TIXMKi7c1EUlPMxtsbDO-51" value="" style="rounded=0;whiteSpace=wrap;html=1;fillColor=none;" vertex="1" parent="1">
          <mxGeometry x="300" y="10" width="200" height="890" as="geometry" />
        </mxCell>
      </root>
    </mxGraphModel>
  </diagram>
</mxfile>
